<?xml version="1.0" encoding="UTF-8" standalone="no"?>
<svg
   width="342.38281"
   height="495.38791"
   version="1.1"
   id="svg16"
   sodipodi:docname="arthur-logo-so-A.svg"
   inkscape:version="1.1 (c4e8f9ed74, 2021-05-24)"
   xmlns:inkscape="http://www.inkscape.org/namespaces/inkscape"
   xmlns:sodipodi="http://sodipodi.sourceforge.net/DTD/sodipodi-0.dtd"
   xmlns="http://www.w3.org/2000/svg"
   xmlns:svg="http://www.w3.org/2000/svg">
  <defs
     id="defs20" />
  <sodipodi:namedview
     id="namedview18"
     pagecolor="#ffffff"
     bordercolor="#666666"
     borderopacity="1.0"
     inkscape:pageshadow="2"
     inkscape:pageopacity="0.0"
     inkscape:pagecheckerboard="0"
     showgrid="false"
     inkscape:zoom="0.67761635"
     inkscape:cx="56.816811"
     inkscape:cy="240.5491"
     inkscape:window-width="1920"
     inkscape:window-height="1019"
     inkscape:window-x="0"
     inkscape:window-y="0"
     inkscape:window-maximized="1"
     inkscape:current-layer="svg16"
     fit-margin-top="0"
     fit-margin-left="0"
     fit-margin-right="0"
     fit-margin-bottom="0" />
  <path
     id="path3596"
     style="color:#000000;display:inline;fill:#ff5f1f;fill-opacity:1;-inkscape-stroke:none"
     d="m 316.55079,148.67193 h -73.15235 -78.06641 l 0.0938,-1.66797 0.0937,-1.66602 1.14649,-2.66797 0.95508,-2.2207 V 71.357472 1.3750506 l -2,-0.3574218 -2,-0.35742192 L 131.57227,74.328176 99.52149,148.002 l -41.94922,0.66602 -41.95117,0.66797 -0.44922,3.18359 -0.44922,3.1836 6.92773,77.57031 6.92969,77.57031 -14.14453,32.47461 -14.14648,32.47266 v 1.77343 1.77149 h 17.04492 17.33203 v 0.002 h 0.28906 v 1.32422 1.32617 l 3.41406,38.3418 3.41211,38.3418 1.31641,1.33398 1.31445,1.33203 60.27149,16.88672 60.27148,16.88672 2,0.13867 1.75391,0.12109 61.29297,-16.86914 61.33203,-16.8789 1.46875,-1.47852 1.46875,-1.47851 2.91015,-34 2.91016,-34 0.79102,-7.63282 0.79101,-7.63476 0.0606,-0.002 2.69922,-31.39062 1.30078,-6.66602 1.30078,-6.66796 2.52344,-28.51954 -0.36328,-0.80273 6.73047,-75.28125 6.73046,-75.2793 -1.04101,-1.04101 -1.04102,-1.04102 z m -294.28516,6.62109 0.28906,0.002 36.45508,0.35352 36.74609,0.35547 0.28907,0.002 -30.37696,69.71875 -30.375,69.7207 -0.50586,0.50586 -0.50586,0.50586 -0.0234,-0.26758 -0.26563,0.26563 -6.24805,-70.19531 -6.24804,-70.19727 0.38476,-0.38476 z m 291.4668,0 0.0469,0.0469 h 1.17578 v 1.17579 l 0.11328,0.11328 -0.11328,1.29883 v 0.58398 3.17383 l -7.29297,82.49219 -7.29297,82.49414 -1.30468,6.66601 -1.30274,6.66797 -3.07422,35.32812 h 0.21094 l -0.51562,3.51563 -1.61524,18.55664 -4.99414,57.40234 -59.4082,16.33204 -59.41016,16.33203 -0.22851,-0.0195 -0.0606,0.0176 -2.66602,-0.21679 -0.004,-0.006 -2.66797,-0.2168 -57.33203,-16.04883 -57.33399,-16.04883 -0.23242,-0.14648 -0.23437,-0.14648 -2.74024,-31.32227 -2.73828,-31.32227 -0.74023,-6.33203 -0.74024,-6.33398 18.37891,-0.008 18.3789,-0.01 6,-14.88867 6,-14.88867 0.0547,0.60937 0.24219,-0.60351 2.84961,32.34961 2.84961,32.34961 1.27344,1.27148 1.27343,1.27344 31.80664,8.61132 31.80664,8.61133 6.07032,-0.0156 5.45508,-0.0117 29.04296,-7.79297 35.01954,-9.39648 1.0664,-1.06641 1.06641,-1.06641 2.85547,-33.32812 2.85546,-33.33008 0.74219,-1.98828 1.04297,-11.68164 -0.83008,-2.16211 -0.82997,-2.16168 h -38.70898 -38.70898 v -26.66797 -26.66601 h 41.92187 41.91992 l 0.84571,-1.36914 0.8457,-1.36719 2.76367,-31.15625 2.76367,-31.15625 -0.82226,-2.14258 -0.82227,-2.14063 h -54.52344 -54.52539 v -0.002 h -0.28906 l 4.39063,-11.66797 4.38867,-11.66601 4.3457,-14.33399 4.3457,-14.33398 h 2.91407 2.91406 l 0.002,0.004 h 68.87305 68.54492 z m -168.04688,58.71094 h 23.55859 23.5586 v 0.002 h 6.4082 53.23828 l -0.7207,5.66602 -0.7207,5.66796 -1.40821,17.33204 -1.4082,17.33398 -0.73633,5 -0.73437,5 h -62.02539 -62.02735 v -0.002 h -0.28515 l 0.65039,-1.66797 0.65234,-1.66602 11,-26.33398 z M 96,336.67193 h 72.04688 72.04492 v 0.002 h 0.28906 l -0.72851,6.33198 -0.72656,6.33398 -2.68555,29.96485 -2.6836,29.96679 -0.96679,0.82032 -0.9668,0.82031 -30.78711,8.21289 -30.78906,8.21289 -0.26367,-0.008 -0.0254,0.006 -2.54688,-0.082 -2.54492,-0.082 -30.22266,-8.25196 -30.2207,-8.25 -0.98242,-0.98242 -0.98242,-0.98242 -3.06641,-33.6836 -3.06836,-33.68359 -0.0605,-2.33398 z" />
  <path
     d="m 166.95265,495.25092 -2,-0.138 -60.272,-16.887 -60.272,-16.887 -1.315,-1.333 -1.315,-1.333 -3.413,-38.342 -3.413,-38.342 v -1.325 -1.325 h -17.333 -17.333 v -1.773 -1.773 l 14.145,-32.474 14.145,-32.474 -6.929,-77.57 -6.929,-77.57 0.45,-3.184 0.45,-3.184 41.95,-0.667 41.95,-0.667 32.05,-73.645 32.051,-73.641 2,-0.001 2,-0.001 -1.445,0.98 -1.445,0.98 -81.04,186 -81.04,186 -0.658,1.667 -0.658,1.667 37.809,-0.019 37.809,-0.019 5.227,-12.981 5.227,-12.981 5.02,-11 5.02,-11 h 74.128 74.128 l 0.83,2.163 0.83,2.163 -3.588,40.154 -3.588,40.154 -1.061,1.061 -1.061,1.061 -31.889,8.609 -31.889,8.609 -6.07,0.014 -6.07,0.014 -31.807,-8.611 -31.807,-8.611 -1.273,-1.273 -1.273,-1.272 -2.85,-32.349 -2.85,-32.349 -6,14.889 -6,14.889 -18.379,0.009 -18.379,0.009 0.74,6.333 0.74,6.333 2.739,31.322 2.739,31.322 0.234,0.148 0.234,0.148 56.667,15.737 56.667,15.738 3.164,0.646 3.164,0.646 59.578,-16.451 59.578,-16.451 4.994,-57.402 4.993,-57.405 1.304,-6.667 1.304,-6.667 7.293,-82.493 7.293,-82.493 v -3.173 -3.173 h -74.414 -74.414 l -4.345,14.333 -4.346,14.333 -4.39,11.667 -4.39,11.667 h 54.525 54.525 l 0.822,2.142 0.822,2.142 -2.764,31.156 -2.764,31.156 -0.846,1.368 -0.846,1.368 h -66.588 -66.588 v -0.339 -0.339 l 3.217,-8.661 3.217,-8.661 13.429,-32.39 13.429,-32.39 5.965,-18.943 5.967,-18.943 0.867,-3.667 0.867,-3.667 h 77.777 77.777 l 0.732,1.185 0.732,1.185 -7.946,89.815 -7.946,89.815 -1.301,6.667 -1.301,6.667 -4.931,57.333 -4.931,57.333 -1.475,1.478 -1.475,1.478 -61.333,16.88 -61.333,16.88 z m 0.546,-67.994 2.546,0.082 30.788,-8.212 30.788,-8.212 0.967,-0.821 0.967,-0.821 2.684,-29.966 2.684,-29.966 0.728,-6.333 0.728,-6.333 h -72.046 -72.046 l 0.062,2.333 0.062,2.333 3.067,33.684 3.067,33.684 0.982,0.982 0.982,0.982 30.222,8.251 30.222,8.251 z m -132.714,-131.305 0.506,-0.506 30.375,-69.72 30.376,-69.72 -36.745,-0.355 -36.745,-0.355 -0.384,0.384 -0.384,0.384 6.248,70.197 6.248,70.197 z m 149.908,-25.946 h 62.025 l 0.736,-5 0.736,-5 1.408,-17.333 1.408,-17.333 0.721,-5.667 0.721,-5.667 h -53.24 -53.24 l -11,26.333 -11,26.333 -0.651,1.667 -0.651,1.667 z"
     fill="#4d4d4d"
     id="path14" />
  <path
     id="path3612-6"
     style="color:#000000;display:inline;fill:#ff8352;fill-opacity:1;-inkscape-stroke:none"
     d="M 163.77734,0 131.5,74 l -32.27539,74 -41.94531,0.66797 -41.94727,0.66601 -0.44922,3.18555 -0.44922,3.18359 6.92774,77.57032 6.92969,77.57031 L 14.14648,343.3164 0,375.79101 v 1.77344 1.77149 h 0.28906 v -1.77149 -1.77344 l 14.14649,-32.47265 14.14453,-32.47461 -6.92969,-77.57031 -6.92773,-77.57032 0.44922,-3.18359 0.44921,-3.18359 41.95118,-0.66797 41.94921,-0.66602 32.05079,-73.67383 32.04882,-73.66797 2,0.35743 2,0.35742 v 69.98242 69.0918 l 0.19141,-0.44531 0.11133,1.33203 0.11133,1.33398 0.80468,3 0.80469,3 h -2.15625 l -2.15625,0.002 h 78.06641 73.15234 l -36.44336,-0.31836 -40.46875,-0.35351 -33.55469,-74 -33.55468,-74 h -4.37696 z m 7.89063,155.33984 6.33008,18.94141 6.33398,18.94336 2.5,5.83398 2.5,5.83203 v 1.22266 1.22266 h -20.48242 l -20.19336,0.002 v 0.002 h 54.52539 54.52344 l 0.82226,2.14063 0.82227,2.14258 -2.76367,31.15625 -2.76367,31.15625 -0.84571,1.36718 -0.8457,1.36914 h -41.91992 -41.92188 v 26.66602 26.66797 h 38.70899 38.70898 l 0.83008,2.16211 0.83008,2.16211 -1.04297,11.68164 0.17187,-0.46289 0.91211,-2.45118 6.54102,16.11915 6.53906,16.11718 h 17.20508 16.99414 l 3.07422,-35.32812 1.30273,-6.66797 1.30469,-6.66602 7.29297,-82.49414 7.29297,-82.49218 v -3.17383 -0.58399 l -5.5,63.05664 -5.61328,64.35352 -0.25391,1.64648 -0.25586,1.64649 -30.0293,-66.3125 -30.03125,-66.31445 35.23047,-0.35547 30.58399,-0.3086 h -68.54492 z m 21.13476,58.66602 11.26563,26.90429 11.26367,26.90821 0.44531,1.09179 0.44336,1.09376 h -46.91992 -46.63281 v 0.002 h 62.02734 62.02539 l 0.73438,-5 0.73633,-5 1.4082,-17.33399 1.4082,-17.33203 0.72071,-5.66797 0.7207,-5.66601 h -53.23828 z m 116.75586,88.14648 -2.52343,28.51953 -1.30078,6.66797 -1.30079,6.66602 -2.69921,31.39062 20.29296,-0.36328 20.35547,-0.36719 -16.59375,-36.6582 z" />
</svg>
