<?xml version="1.0" encoding="UTF-8" standalone="no"?>
<svg
   width="540.501"
   height="618.344"
   version="1.1"
   id="svg16"
   sodipodi:docname="arthur-logo-2.svg"
   inkscape:version="1.1 (c4e8f9ed74, 2021-05-24)"
   xmlns:inkscape="http://www.inkscape.org/namespaces/inkscape"
   xmlns:sodipodi="http://sodipodi.sourceforge.net/DTD/sodipodi-0.dtd"
   xmlns="http://www.w3.org/2000/svg"
   xmlns:svg="http://www.w3.org/2000/svg">
  <defs
     id="defs20" />
  <sodipodi:namedview
     id="namedview18"
     pagecolor="#ffffff"
     bordercolor="#666666"
     borderopacity="1.0"
     inkscape:pageshadow="2"
     inkscape:pageopacity="0.0"
     inkscape:pagecheckerboard="0"
     showgrid="false"
     inkscape:zoom="0.67761635"
     inkscape:cx="158.64434"
     inkscape:cy="122.48819"
     inkscape:window-width="1920"
     inkscape:window-height="1019"
     inkscape:window-x="0"
     inkscape:window-y="0"
     inkscape:window-maximized="1"
     inkscape:current-layer="svg16" />
  <path
     id="path3596"
     style="color:#000000;display:inline;fill:#ff5f1f;fill-opacity:1;-inkscape-stroke:none"
     d="m 417.92188,148.66602 h -73.15235 -78.06641 l 0.0938,-1.66797 0.0937,-1.66602 1.14649,-2.66797 0.95508,-2.2207 V 71.351562 1.3691406 l -2,-0.3574218 -2,-0.35742192 -32.04883,73.66796912 -32.05078,73.673824 -41.94922,0.66602 -41.95117,0.66797 -0.44922,3.18359 -0.44922,3.1836 6.92773,77.57031 6.92969,77.57031 -14.14453,32.47461 -14.14648,32.47266 v 1.77343 1.77149 h 17.04492 17.33203 v 0.002 h 0.28906 v 1.32422 1.32617 l 3.41406,38.3418 3.41211,38.3418 1.31641,1.33398 1.31445,1.33203 60.27149,16.88672 60.27148,16.88672 2,0.13867 1.75391,0.12109 61.29297,-16.86914 61.33203,-16.8789 1.46875,-1.47852 1.46875,-1.47851 2.91015,-34 2.91016,-34 0.79102,-7.63282 0.79101,-7.63476 0.0606,-0.002 2.69922,-31.39062 1.30078,-6.66602 1.30078,-6.66796 2.52344,-28.51954 -0.36328,-0.80273 6.73047,-75.28125 6.73046,-75.2793 -1.04101,-1.04101 -1.04102,-1.04102 z m -294.28516,6.62109 0.28906,0.002 36.45508,0.35352 36.74609,0.35547 0.28907,0.002 -30.37696,69.71875 -30.375,69.7207 -0.50586,0.50586 -0.50586,0.50586 -0.0234,-0.26758 -0.26563,0.26563 -6.24805,-70.19531 -6.24804,-70.19727 0.38476,-0.38476 z m 291.4668,0 0.0469,0.0469 h 1.17578 v 1.17579 l 0.11328,0.11328 -0.11328,1.29883 v 0.58398 3.17383 l -7.29297,82.49219 -7.29297,82.49414 -1.30468,6.66601 -1.30274,6.66797 -3.07422,35.32812 h 0.21094 l -0.51562,3.51563 -1.61524,18.55664 -4.99414,57.40234 -59.4082,16.33204 -59.41016,16.33203 -0.22851,-0.0195 -0.0606,0.0176 -2.66602,-0.21679 -0.004,-0.006 -2.66797,-0.2168 -57.33203,-16.04883 -57.33399,-16.04883 -0.23242,-0.14648 -0.23437,-0.14648 -2.74024,-31.32227 -2.73828,-31.32227 -0.74023,-6.33203 -0.74024,-6.33398 18.37891,-0.008 18.3789,-0.01 6,-14.88867 6,-14.88867 0.0547,0.60937 0.24219,-0.60351 2.84961,32.34961 2.84961,32.34961 1.27344,1.27148 1.27343,1.27344 31.80664,8.61132 31.80664,8.61133 6.07032,-0.0156 5.45508,-0.0117 29.04296,-7.79297 35.01954,-9.39648 1.0664,-1.06641 1.06641,-1.06641 2.85547,-33.32812 2.85546,-33.33008 0.74219,-1.98828 1.04297,-11.68164 -0.83008,-2.16211 L 347.07812,330 h -38.70898 -38.70898 v -26.66797 -26.66601 h 41.92187 41.91992 l 0.84571,-1.36914 0.8457,-1.36719 2.76367,-31.15625 2.76367,-31.15625 -0.82226,-2.14258 -0.82227,-2.14063 h -54.52344 -54.52539 v -0.002 h -0.28906 l 4.39063,-11.66797 4.38867,-11.66601 4.3457,-14.33399 4.3457,-14.33398 h 2.91407 2.91406 l 0.002,0.004 h 68.87305 68.54492 z m -168.04688,58.71094 h 23.55859 23.5586 V 214 h 6.4082 53.23828 l -0.7207,5.66602 -0.7207,5.66796 -1.40821,17.33204 -1.4082,17.33398 -0.73633,5 -0.73437,5 h -62.02539 -62.02735 v -0.002 h -0.28515 l 0.65039,-1.66797 0.65234,-1.66602 11,-26.33398 z m -49.68555,122.66797 h 72.04688 72.04492 v 0.002 h 0.28906 L 341.02344,343 l -0.72656,6.33398 -2.68555,29.96485 -2.6836,29.96679 -0.96679,0.82032 -0.9668,0.82031 -30.78711,8.21289 -30.78906,8.21289 -0.26367,-0.008 -0.0254,0.006 -2.54688,-0.082 -2.54492,-0.082 -30.22266,-8.25196 -30.2207,-8.25 -0.98242,-0.98242 -0.98242,-0.98242 -3.06641,-33.6836 -3.06836,-33.68359 -0.0605,-2.33398 z" />
  <path
     id="path2951"
     style="color:#000000;display:inline;fill:#ff5f1f;fill-opacity:1;-inkscape-stroke:none"
     d="m 484.56641,520.31641 -7.75782,2.25586 -7.75976,2.25585 -4.8418,3.06446 -4.8418,3.0625 -5.73046,6.22851 -5.73243,6.22657 -2.74609,6.29296 -2.74805,6.29297 -0.85351,9.61524 -0.85547,9.61523 -5.26563,-11.61523 -5.26367,-11.61524 -4.57422,-10 -4.57226,-10 -2.44922,-5.66601 -2.44727,-5.66797 h -1.38086 -1.38086 v 0.42383 0.42187 l -14.65039,33.78125 -14.64843,33.78321 -0.67579,0.67578 -0.67382,0.67578 -2.71289,-2.45703 -2.71485,-2.45508 -2.10156,3.00195 -2.10352,3.00195 -5.39257,3.90626 -5.39063,3.90624 h -8.52148 -8.51953 l -5.20313,-2.65429 -5.20312,-2.6543 -3.22461,-4.3457 -3.22657,-4.34571 -1.51757,-4.53124 -1.51758,-4.53321 v -7.53906 -7.53906 l 3.46289,-6.94727 3.46289,-6.94922 5.62891,-3.29883 5.6289,-3.29882 4.19727,-0.83985 4.19726,-0.83984 6.18555,0.92773 6.18555,0.92774 5.75976,5.31054 5.75977,5.3086 7.43164,-4.9336 7.43164,-4.93554 v -1.17383 -1.17383 l -5.36328,-5.81836 -5.36328,-5.81836 -6.96875,-3.0957 -6.97071,-3.09375 -12.66601,-0.0566 -12.66797,-0.0566 -8.66602,4.16406 -8.66797,4.16406 -4.33203,4.32813 -4.33398,4.32812 v -8.1582 -8.1582 h -9.33203 -9.33399 V 548.92 575.83992 l -6.33203,-6.75586 -6.33398,-6.75586 -19,-17.70898 -19,-17.70703 v -2.30078 -2.30078 l -3.19141,-0.61133 -3.1914,-0.60938 -7.14063,0.5918 -7.14258,0.5918 0.27539,29.52929 0.27344,29.5293 -1.31055,6 -1.31054,6 -3.63086,3.07227 -3.63086,3.07422 -9.54883,-0.42774 -9.54883,-0.42773 -2.77734,-2.51172 -2.77539,-2.51367 -1.33399,-4.79883 -1.33203,-4.80078 -0.008,-31 -0.01,-31 h -10 -10 v 2.61914 2.62304 l -4.65429,-2.74804 -4.65625,-2.7461 -7.67774,-0.68945 -7.67773,-0.68945 -5.71875,1.54687 -5.71875,1.54883 -4.25586,3.80078 -4.25586,3.80274 -4.32227,-3.79493 -4.32226,-3.79492 -5.03516,-1.40039 -5.03711,-1.39844 H 99.369141 94.035156 L 89,522.07617 l -5.035156,1.40039 -4.699219,4.125 -4.697266,4.125 -2.039062,3.94336 -2.039063,3.94141 0.03711,7.84375 0.03906,7.8457 2.228516,4.69531 2.228516,4.69727 4.173828,3.53906 4.173828,3.53906 11.333984,5.23243 11.332034,5.23047 3,2.77929 3,2.78125 v 3.73633 3.73828 l -3,1.94141 -3,1.93945 -3.72266,0.91602 -3.724608,0.91601 -5.925782,-2.26367 -5.925781,-2.26367 -2.77539,-3.89649 -2.775391,-3.89843 -2.908203,0.72656 -2.908203,0.72461 -8.572266,-19.05664 -8.572266,-19.05664 -4.597656,-10 -4.599609,-10 -2.451172,-5.66797 -2.447266,-5.66602 h -1.238281 -1.238281 l -0.669922,1.66602 -0.671875,1.66797 -13.326172,30.75 -13.324219,30.75195 -3,6.58203 -3.0019528,6.58203 -2.6054687,6 -2.6074219,6 -1.171875,3 -1.17187498,3 h 9.97656238 9.978516 l 2.134765,-5.33398 2.132813,-5.33203 h 18.533203 18.533203 l 2.115234,5.2832 2.113282,5.28516 12.208984,0.51171 12.207031,0.51368 11.410163,-0.19532 11.41211,-0.19531 5.3164,-2.76953 5.31641,-2.77148 5.27343,2.71679 5.27344,2.71485 9.61328,0.625 9.61328,0.625 6.38672,-1.58399 6.38672,-1.58593 5.00391,-3.98438 5.00391,-3.98633 4.60156,3.51172 4.60351,3.51172 6.27149,1.88672 6.27344,1.88867 h 8.9082 8.91015 l 6.14258,-1.84961 6.14258,-1.84766 3.73633,-2.95312 3.73437,-2.95117 0.41797,4.13281 0.41797,4.13477 h 10.07227 10.07031 l -0.51953,-26.43946 -0.51953,-26.43945 8.11718,8.10547 8.11915,8.10547 20.17187,19 20.17383,19 h 1.40625 1.40625 v -8.14063 -8.13672 l 4.93945,4.33594 4.93945,4.33789 7.39454,3.44727 7.39257,3.44531 11.33399,0.4707 11.33203,0.46875 5.64453,-1.95117 5.64453,-1.95117 -0.72265,1.16992 -0.72266,1.16992 h 10.08789 10.08984 l 2.13282,-5.33398 2.13476,-5.33203 h 18.53321 18.5332 l 2.13281,5.33203 2.13477,5.33203 h 10.61132 10.60938 l -0.92578,-3 -0.92383,-3 -1.88086,-3.69336 -1.87891,-3.69531 5.9629,4.55273 5.96484,4.55274 6.41797,2.47656 6.41797,2.47461 h 13.33203 13.33398 l 7.33203,-3.49219 7.33399,-3.49219 6.10547,-6.19336 6.10546,-6.19336 2.96876,-5.9414 2.96679,-5.94141 1.49219,-8.02539 1.49219,-8.02734 -1.65821,-9.00391 -1.6582,-9.00195 -3.48047,-6.39649 -3.48047,-6.39453 -5.85937,-5.40234 -5.85938,-5.40039 -7.24804,-3.31836 -7.2461,-3.31836 -9.7207,-0.73438 z m 9.83789,18.70703 4.99023,1.64844 4.99024,1.64648 5.08007,4.58789 5.08008,4.58984 2.24805,6.76758 2.24805,6.76758 -0.68946,7.59961 -0.68945,7.59961 -2.1582,4.17773 -2.16016,4.17774 -2.98633,2.8457 -2.98633,2.84375 -2.75976,1.85742 -2.75781,1.85547 -6.01758,1.12305 -0.002,-0.002 -6.01953,1.125 -5.9707,-1.51563 -5.9707,-1.51758 -4.40625,-3.13672 -4.40625,-3.13672 -3.16602,-6.79882 -3.16601,-6.79883 -0.0117,-8.07227 -0.0137,-8.07226 3.37696,-6.77735 3.37695,-6.77734 5.35938,-3.71289 5.35937,-3.71485 7.11328,-0.58984 z m -399.509769,0.30468 h 4.703125 4.703124 l 3.68555,3.94727 3.6875,3.94727 2.51562,-1.9043 2.51367,-1.9043 0.78516,-0.043 0.7832,-0.041 0.23438,6.16797 0.23242,6.16797 2.14258,4.51367 2.14062,4.51367 4.17383,3.53906 4.17383,3.53906 11.33398,5.23243 11.33204,5.23047 3,2.77929 3,2.78125 v 3.73633 3.73828 l -3.19141,2.0918 -3.19141,2.09179 -4.47461,0.6836 0.002,-0.004 -4.47461,0.6836 -5.90235,-3.07813 -5.90429,-3.07617 -0.47071,-5.33399 -0.4707,-5.33203 -1.35742,-4.21679 -1.35742,-4.21485 -3.60157,-3.62695 -3.60351,-3.62695 -4.66602,-2.90235 -4.66797,-2.90234 -7.33203,-3.08789 -7.333981,-3.08789 -3.666015,-2.5918 -3.667969,-2.5918 v -3.81445 -3.81445 l 2.095703,-2.09375 z m 48.001949,0.002 h 4.70313 4.70312 l 3.62891,3.88672 3.63086,3.88672 4.23828,-2.6836 4.23633,-2.68359 v 12.13086 12.13086 h -1.03516 l -1.03515,-0.002 -2.63086,-1.75781 -2.63086,-1.75976 -7.33203,-3.07227 -7.33399,-3.07422 -3.66601,-2.5918 -3.66797,-2.59179 v -3.8125 -3.81446 l 2.0957,-2.0957 z M 42.037109,560.70703 h 0.667969 0.666016 l 4.3125,11.81445 4.3125,11.81641 0.830078,2.16406 0.830078,2.16211 H 42.703125 31.753906 l 0.830078,-2.16211 0.830078,-2.16406 4.3125,-11.81641 z m 372.000001,0 h 0.66797 0.66601 l 4.3125,11.81445 4.3125,11.81641 0.83008,2.16406 0.83008,2.16211 h -10.95313 -10.94921 l 0.83007,-2.16211 0.83008,-2.16406 4.3125,-11.81641 z m 38,39.95703 h 0.66601 0.66797 v 0.66602 0.66797 h -0.66797 -0.66601 v -0.66797 z" />
  <path
     d="m 268.32374,495.24501 -2,-0.138 -60.272,-16.887 -60.272,-16.887 -1.315,-1.333 -1.315,-1.333 -3.413,-38.342 -3.413,-38.342 v -1.325 -1.325 h -17.333 -17.333 v -1.773 -1.773 l 14.145,-32.474 14.145,-32.474 -6.929,-77.57 -6.929,-77.57 0.45,-3.184 0.45,-3.184 41.95,-0.667 41.95,-0.667 32.05,-73.645 32.051,-73.641 2,-0.001 2,-0.001 -1.445,0.98 -1.445,0.98 -81.04,186 -81.04,186 -0.658,1.667 -0.658,1.667 37.809,-0.019 37.809,-0.019 5.227,-12.981 5.227,-12.981 5.02,-11 5.02,-11 h 74.128 74.128 l 0.83,2.163 0.83,2.163 -3.588,40.154 -3.588,40.154 -1.061,1.061 -1.061,1.061 -31.889,8.609 -31.889,8.609 -6.07,0.014 -6.07,0.014 -31.807,-8.611 -31.807,-8.611 -1.273,-1.273 -1.273,-1.272 -2.85,-32.349 -2.85,-32.349 -6,14.889 -6,14.889 -18.379,0.009 -18.379,0.009 0.74,6.333 0.74,6.333 2.739,31.322 2.739,31.322 0.234,0.148 0.234,0.148 56.667,15.737 56.667,15.738 3.164,0.646 3.164,0.646 59.578,-16.451 59.578,-16.451 4.994,-57.402 4.993,-57.405 1.304,-6.667 1.304,-6.667 7.293,-82.493 7.293,-82.493 v -3.173 -3.173 h -74.414 -74.414 l -4.345,14.333 -4.346,14.333 -4.39,11.667 -4.39,11.667 h 54.525 54.525 l 0.822,2.142 0.822,2.142 -2.764,31.156 -2.764,31.156 -0.846,1.368 -0.846,1.368 h -66.588 -66.588 v -0.339 -0.339 l 3.217,-8.661 3.217,-8.661 13.429,-32.39 13.429,-32.39 5.965,-18.943 5.967,-18.943 0.867,-3.667 0.867,-3.667 h 77.777 77.777 l 0.732,1.185 0.732,1.185 -7.946,89.815 -7.946,89.815 -1.301,6.667 -1.301,6.667 -4.931,57.333 -4.931,57.333 -1.475,1.478 -1.475,1.478 -61.333,16.88 -61.333,16.88 z m 0.546,-67.994 2.546,0.082 30.788,-8.212 30.788,-8.212 0.967,-0.821 0.967,-0.821 2.684,-29.966 2.684,-29.966 0.728,-6.333 0.728,-6.333 h -72.046 -72.046 l 0.062,2.333 0.062,2.333 3.067,33.684 3.067,33.684 0.982,0.982 0.982,0.982 30.222,8.251 30.222,8.251 z m -132.714,-131.305 0.506,-0.506 30.375,-69.72 30.376,-69.72 -36.745,-0.355 -36.745,-0.355 -0.384,0.384 -0.384,0.384 6.248,70.197 6.248,70.197 z m 149.908,-25.946 h 62.025 l 0.736,-5 0.736,-5 1.408,-17.333 1.408,-17.333 0.721,-5.667 0.721,-5.667 h -53.24 -53.24 l -11,26.333 -11,26.333 -0.651,1.667 -0.651,1.667 z"
     fill="#4d4d4d"
     id="path14" />
  <path
     id="path3612-6"
     style="color:#000000;display:inline;fill:#ff8352;-inkscape-stroke:none;fill-opacity:1"
     d="m 265.14843,-0.00591 -32.27734,74 -32.27539,74 -41.94531,0.66797 -41.94727,0.66601 -0.44922,3.18555 -0.44922,3.18359 6.92774,77.57032 6.92969,77.57031 -14.14454,32.47265 -14.14648,32.47461 v 1.77344 1.77149 h 0.28906 v -1.77149 -1.77344 l 14.14649,-32.47265 14.14453,-32.47461 -6.92969,-77.57031 -6.92773,-77.57032 0.44922,-3.18359 0.44921,-3.18359 41.95118,-0.66797 41.94921,-0.66602 32.05079,-73.67383 32.04882,-73.66797 2,0.35743 2,0.35742 v 69.98242 69.0918 l 0.19141,-0.44531 0.11133,1.33203 0.11133,1.33398 0.80468,3 0.80469,3 h -2.15625 l -2.15625,0.002 h 78.06641 73.15234 l -36.44336,-0.31836 -40.46875,-0.35351 -33.55469,-74 -33.55468,-74 h -4.37696 z m 7.89063,155.33984 6.33008,18.94141 6.33398,18.94336 2.5,5.83398 2.5,5.83203 v 1.22266 1.22266 H 270.2207 l -20.19336,0.002 v 0.002 h 54.52539 54.52344 l 0.82226,2.14063 0.82227,2.14258 -2.76367,31.15625 -2.76367,31.15625 -0.84571,1.36718 -0.8457,1.36914 h -41.91992 -41.92188 v 26.66602 26.66797 h 38.70899 38.70898 l 0.83008,2.16211 0.83008,2.16211 -1.04297,11.68164 0.17187,-0.46289 0.91211,-2.45118 6.54102,16.11915 6.53906,16.11718 h 17.20508 16.99414 l 3.07422,-35.32812 1.30273,-6.66797 1.30469,-6.66602 7.29297,-82.49414 7.29297,-82.49218 v -3.17383 -0.58399 l -5.5,63.05664 -5.61328,64.35352 -0.25391,1.64648 -0.25586,1.64649 -30.0293,-66.3125 -30.03125,-66.31445 35.23047,-0.35547 30.58399,-0.3086 h -68.54492 z m 21.13476,58.66602 11.26563,26.90429 11.26367,26.90821 0.44531,1.09179 0.44336,1.09376 H 270.67187 224.03906 V 270 h 62.02734 62.02539 l 0.73438,-5 0.73633,-5 1.4082,-17.33399 1.4082,-17.33203 0.72071,-5.66797 0.7207,-5.66601 h -53.23828 z m 116.75586,88.14648 -2.52343,28.51953 -1.30078,6.66797 -1.30079,6.66602 -2.69921,31.39062 20.29296,-0.36328 20.35547,-0.36719 -16.59375,-36.6582 z" />
</svg>
