<?xml version="1.0" encoding="iso-8859-1"?>
<!-- Generator: Adobe Illustrator 19.0.0, SVG Export Plug-In . SVG Version: 6.00 Build 0)  -->
<svg version="1.1" id="Capa_1" xmlns="http://www.w3.org/2000/svg" xmlns:xlink="http://www.w3.org/1999/xlink" x="0px" y="0px"
	 viewBox="0 0 490 490" style="enable-background:new 0 0 490 490;" xml:space="preserve">
<g>
	<path d="M245,169.144c27.118,0,49.1-21.984,49.1-49.102S272.118,70.94,245,70.94c-27.118,0-49.104,21.984-49.104,49.102
		S217.882,169.144,245,169.144z M245,86.252c18.632,0,33.788,15.157,33.788,33.79c0,18.632-15.156,33.789-33.788,33.789
		s-33.791-15.157-33.791-33.789C211.208,101.41,226.368,86.252,245,86.252z"/>
	<path d="M195.234,180.425c0,0-49.766,0.664-49.766,46.448c0,45.784,0,56.401,0,56.401s96.873,0,97.206,0L195.234,180.425z
		 M160.781,226.873c0-20.502,14.669-27.52,25.216-29.915l32.752,71.003h-57.968V226.873z"/>
	<path d="M344.531,283.274c0,0,0-10.617,0-56.401c0-45.784-49.766-46.448-49.766-46.448l-47.444,102.849H344.531z M304.003,196.958
		c10.546,2.395,25.216,9.411,25.216,29.915v41.089h-57.971L304.003,196.958z"/>
	<polygon points="210.826,180.425 244.999,256.068 279.171,180.425 244.999,180.425 	"/>
	<path d="M367.5,0H53.594v490h382.813V76.563L367.5,0z M367.818,23.242l48.85,54.277h-48.85V23.242z M68.906,474.688V15.313h283.599
		v77.52h68.589v381.855H68.906z"/>
	<rect x="130.16" y="336.307" width="229.687" height="15.312"/>
	<rect x="130.16" y="375.44" width="229.687" height="15.313"/>
	<rect x="130.16" y="414.574" width="229.687" height="15.313"/>
</g>
<g>
</g>
<g>
</g>
<g>
</g>
<g>
</g>
<g>
</g>
<g>
</g>
<g>
</g>
<g>
</g>
<g>
</g>
<g>
</g>
<g>
</g>
<g>
</g>
<g>
</g>
<g>
</g>
<g>
</g>
</svg>
